# xmcd
#
# Track frame offsets:
#	150
#	10030
#	18873
#	28380
#	38849
#	49277
#	62098
#	71930
#	82021
#	94496
#	107142
#	117978
#	126876
#	138035
#	149951
#	161363
#	169836
#	182866
#	195548
#	206103
#	216494
#	226734
#	237148
#	246354
#
# Disc length: 3416 seconds
#
# Revision: 0
# Processed by: cddbd v1.5.2PL0 Copyright (c) Steve Scherf et al.
# Submitted via: EasyCDDAExtractor 15.3.0.1
#
DISCID=6a0d5618
DTITLE=Floyd Cramer - Countrypolitan Piano Cd 1
DYEAR=1900
DGENRE=
TTITLE0=I'll Never Be Free
TTITLE1=Swingin' Shepherd Blues
TTITLE2=Midnight
TTITLE3=Have I Stayed Away Too Long
TTITLE4=Stormy Weather
TTITLE5=Trouble In Mind
TTITLE6=Tricky
TTITLE7=Blues Stay Away From Me
TTITLE8=Re-Enlistment Blues
TTITLE9=Lonesome Road
TTITLE10=Yesterdays
TTITLE11=Forever
TTITLE12=Last Date
TTITLE13=I Need You Now
TTITLE14=Moments To Remember
TTITLE15=Tennessee Waltz
TTITLE16=Too Young
TTITLE17=Mood Indigo
TTITLE18=Sweetie Baby
TTITLE19=Mumble Jumble
TTITLE20=Flip Flip And Bop
TTITLE21=Fancy Pants
TTITLE22=Rumpus
TTITLE23=Heart And Soul
EXTD=
EXTT0=
EXTT1=
EXTT2=
EXTT3=
EXTT4=
EXTT5=
EXTT6=
EXTT7=
EXTT8=
EXTT9=
EXTT10=
EXTT11=
EXTT12=
EXTT13=
EXTT14=
EXTT15=
EXTT16=
EXTT17=
EXTT18=
EXTT19=
EXTT20=
EXTT21=
EXTT22=
EXTT23=
PLAYORDER=
